<svg height="502pt" viewBox="0 -17 502.668 502" width="502pt" xmlns="http://www.w3.org/2000/svg"><path d="m105.492188 310.992188h291.683593v153.34375h-291.683593zm0 0" fill="#1c868e"/><path d="m3.992188 157.675781h247.300781v153.316407h-247.300781zm0 0" fill="#1c868e"/><path d="m251.292969 157.675781h247.28125v153.316407h-247.28125zm0 0" fill="#1c868e"/><path d="m251.292969 157.675781v111.316407h-191.957031c-5.523438 0-10-4.476563-10-10v-101.316407zm0 0" fill="#40c4df"/><path d="m498.574219 157.675781v111.316407h-191.941407c-5.519531 0-10-4.476563-10-10v-101.316407zm0 0" fill="#40c4df"/><path d="m498.675781 310.992188v143.34375c0 5.519531-4.480469 10-10 10h-91.683593v-153.34375zm0 0" fill="#1c868e"/><path d="m105.492188 310.992188v153.34375h-91.5c-5.519532 0-10-4.480469-10-10v-143.34375zm0 0" fill="#1c868e"/><path d="m105.492188 4.335938h291.683593v153.339843h-291.683593zm0 0" fill="#1c868e"/><path d="m498.675781 14.335938v143.339843h-101.683593v-153.339843h91.683593c5.519531 0 10 4.476562 10 10zm0 0" fill="#1c868e"/><path d="m105.492188 4.335938v153.339843h-101.5v-143.339843c0-5.523438 4.480468-10 10-10zm0 0" fill="#1c868e"/><g fill="#40c4df"><path d="m397.175781 310.992188v115.34375h-235.683593c-5.519532 0-10-4.480469-10-10v-105.34375zm0 0"/><path d="m498.675781 310.992188v115.34375h-45.683593c-5.519532 0-10-4.480469-10-10v-105.34375zm0 0"/><path d="m105.492188 310.992188v115.34375h-45.5c-5.519532 0-10-4.480469-10-10v-105.34375zm0 0"/><path d="m397.175781 4.335938v115.339843h-235.683593c-5.519532 0-10-4.480469-10-10v-105.339843zm0 0"/><path d="m498.675781 14.335938v105.339843h-45.683593c-5.519532 0-10-4.480469-10-10v-105.339843h45.683593c5.519531 0 10 4.476562 10 10zm0 0"/><path d="m105.492188 4.335938v115.339843h-45.5c-5.519532 0-10-4.480469-10-10v-105.339843zm0 0"/></g><path d="m309.894531 440.960938c-4.550781-4.925782-4.253906-12.605469.671875-17.160157l39.082032-36.136719-39.082032-36.132812c-4.925781-4.550781-5.222656-12.234375-.671875-17.160156 4.554688-4.921875 12.234375-5.226563 17.160157-.671875l48.726562 45.046875c5.195312 4.800781 5.199219 13.027344 0 17.835937l-48.726562 45.046875c-4.921876 4.554688-12.601563 4.257813-17.160157-.667968zm0 0" fill="#fff"/><path d="m175.613281 441.632812-48.726562-45.046874c-5.191407-4.800782-5.199219-13.027344 0-17.835938l48.726562-45.046875c4.925781-4.554687 12.605469-4.253906 17.160157.671875 4.554687 4.921875 4.253906 12.605469-.671876 17.160156l-39.078124 36.132813 39.078124 36.132812c4.925782 4.554688 5.226563 12.238281.671876 17.160157-4.558594 4.929687-12.242188 5.222656-17.160157.671874zm0 0" fill="#fff"/><path d="m219.253906 443.234375c-5.808594-3.355469-7.800781-10.78125-4.449218-16.589844l52.019531-90.097656c3.355469-5.804687 10.777343-7.796875 16.589843-4.445313 5.808594 3.355469 7.796876 10.78125 4.445313 16.589844l-52.019531 90.097656c-3.351563 5.808594-10.777344 7.796876-16.585938 4.445313zm0 0" fill="#fff"/><path d="m308.492188 426.335938c-2.816407 4.519531-2.398438 10.519531 1.402343 14.617187 4.558594 4.941406 12.238281 5.222656 17.160157.679687l16.558593-15.296874zm0 0" fill="#d8d6d7"/><path d="m126.894531 396.59375 24.597657 22.742188v-63.34375l-24.597657 22.761718c-5.199219 4.800782-5.199219 13.019532 0 17.839844zm0 0" fill="#d8d6d7"/><path d="m159.054688 426.335938 16.558593 15.296874c4.921875 4.542969 12.601563 4.261719 17.160157-.679687 3.800781-4.097656 4.21875-10.097656 1.402343-14.617187zm0 0" fill="#d8d6d7"/><path d="m214.8125 426.652344c-3.359375 5.800781-1.378906 13.222656 4.441406 16.582031 5.800782 3.359375 13.238282 1.359375 16.582032-4.441406l7.199218-12.457031h-28.042968zm0 0" fill="#d8d6d7"/><path d="m488.667969.335938c-22.652344 0-455 0-474.667969 0-7.71875 0-14 6.28125-14 14v440c0 7.714843 6.28125 14 14 14h474.667969c7.71875 0 14-6.285157 14-14 0 0 0-439.519532 0-440 0-7.71875-6.28125-14-14-14zm-379.167969 8h283.5v145.332031c-14.734375 0-268.699219 0-283.5 0zm385.085938 153.332031v145.332031c-15.445313 0-237.523438 0-239.289063 0v-145.332031zm-486.585938-147.332031c0-3.308594 2.691406-6 6-6h87.5v145.332031h-93.5zm0 147.332031h239.289062v145.332031c-1.761718 0-223.835937 0-239.289062 0zm93.5 298.667969h-87.5c-3.308594 0-6-2.695313-6-6v-139.335938h93.5zm291.5 0h-283.5v-145.335938h283.5zm101.667969-6c0 3.304687-2.691407 6-6 6h-87.5v-145.335938h93.5zm0-300.667969h-93.5v-145.332031h87.5c3.308593 0 6 2.691406 6 6zm0 0" fill="#491352"/><path d="m318.816406 448.851562c3.921875 0 7.855469-1.414062 10.953125-4.28125l48.726563-45.046874c6.914062-6.402344 6.886718-17.339844 0-23.710938l-48.726563-45.046875c-6.53125-6.039063-16.769531-5.640625-22.8125.894531-6.042969 6.539063-5.640625 16.769532.894531 22.8125l35.90625 33.199219-35.90625 33.195313c-10.820312 10.003906-3.617187 27.984374 10.964844 27.984374zm-5.535156-22.113281 39.082031-36.132812c1.710938-1.582031 1.710938-4.292969 0-5.875l-39.082031-36.132813c-3.292969-3.046875-3.496094-8.210937-.453125-11.507812 3.050781-3.300782 8.210937-3.5 11.511719-.453125 53.140625 49.128906 51.339844 46.121093 51.339844 51.03125 0 4.910156 1.746093 1.949219-51.339844 51.027343-7.882813 7.296876-18.949219-4.65625-11.058594-11.957031zm0 0" fill="#491352"/><path d="m183.851562 448.851562c9.164063 0 16.496094-7.585937 16.136719-16.765624-.34375-8.78125-2.566406-8.8125-41.078125-44.417969l35.90625-33.199219c6.535156-6.039062 6.9375-16.273438.890625-22.8125-6.039062-6.53125-16.277343-6.933594-22.808593-.890625l-48.726563 45.046875c-6.914063 6.398438-6.886719 17.339844 0 23.707031 52.65625 48.683594 51.253906 49.335938 59.679687 49.332031zm-54.25-67.164062c52.546876-48.582031 49.855469-47.207031 54.253907-47.207031 7.386719 0 10.953125 9.101562 5.53125 14.117187-42.351563 39.160156-40.367188 36.605469-40.367188 39.074219 0 2.472656-1.957031-.0625 40.367188 39.066406 1.597656 1.476563 2.523437 3.488281 2.609375 5.660157.285156 7.207031-8.347656 11.21875-13.664063 6.300781 0-.003907-.003906-.003907-.003906-.003907l-48.722656-45.046874c-3.480469-3.214844-3.5-8.726563-.003907-11.960938zm0 0" fill="#491352"/><path d="m217.253906 446.699219c7.695313 4.441406 17.597656 1.804687 22.050782-5.910157l52.019531-90.097656c4.449219-7.710937 1.796875-17.601562-5.910157-22.054687-7.703124-4.445313-17.597656-1.792969-22.050781 5.910156l-52.019531 90.097656c-4.449219 7.710938-1.800781 17.601563 5.910156 22.054688zm1.019532-18.054688 52.019531-90.097656c2.246093-3.890625 7.234375-5.222656 11.125-2.980469 3.886719 2.242188 5.222656 7.234375 2.980469 11.125l-52.023438 90.097656c-2.242188 3.886719-7.230469 5.226563-11.125 2.980469-3.886719-2.246093-5.222656-7.238281-2.976562-11.125zm0 0" fill="#491352"/></svg>