<svg height="512pt" viewBox="0 0 512 512" width="512pt" xmlns="http://www.w3.org/2000/svg"><g fill="#3e5959"><path d="m75 30h151v30h-151zm0 0"/><path d="m286 30h151v30h-151zm0 0"/><path d="m452 75h30v151h-30zm0 0"/><path d="m452 286h30v151h-30zm0 0"/><path d="m286 452h151v30h-151zm0 0"/></g><path d="m75 452h151v30h-151zm0 0" fill="#537983"/><path d="m30 286h30v151h-30zm0 0" fill="#537983"/><path d="m30 75h30v151h-30zm0 0" fill="#537983"/><path d="m90 90h-90v-90h90zm0 0" fill="#25d9f8"/><path d="m512 90h-90v-90h90zm0 0" fill="#00c0f1"/><path d="m512 512h-90v-90h90zm0 0" fill="#00c0f1"/><path d="m90 512h-90v-90h90zm0 0" fill="#25d9f8"/><path d="m120 120v121h30v-30h61v151h-30v30h150v-30h-30v-151h61v30h30v-121zm0 0" fill="#537983"/><path d="m90 301h-90v-90h90zm0 0" fill="#25d9f8"/><path d="m211 0v90h90v-90zm0 0" fill="#25d9f8"/><path d="m512 301h-90v-90h90zm0 0" fill="#00c0f1"/><path d="m211 422v90h90v-90zm0 0" fill="#25d9f8"/><path d="m256 0h45v90h-45zm0 0" fill="#00c0f1"/><path d="m256 422h45v90h-45zm0 0" fill="#00c0f1"/><path d="m392 120v121h-30v-30h-61v151h30v30h-75v-272zm0 0" fill="#3e5959"/></svg>