<svg height="511pt" viewBox="-26 0 511 511.95" width="511pt" xmlns="http://www.w3.org/2000/svg"><path d="m429.273438 55.351562h-346.199219c-13.800781 0-25.199219 11.199219-25.199219 25.199219v55.199219h322.199219c13.800781 0 25.199219 11.199219 25.199219 25.199219v266h24c13.800781 0 25.203124-11.199219 25.203124-25.199219v-321.398438c-.203124-13.800781-11.402343-25-25.203124-25zm0 0" fill="#acdef9"/><path d="m33.875 135.550781h346.199219c14 0 25.199219 11.199219 25.199219 25.199219v321c0 14-11.199219 25.199219-25.199219 25.199219h-346.199219c-14 0-25.199219-11.199219-25.199219-25.199219v-321c0-14 11.199219-25.199219 25.199219-25.199219zm0 0" fill="#acdef9"/><path d="m294.875 373.148438-47.199219-7.597657c-2.199219-.402343-4.199219 1.199219-4.601562 3.398438v1.199219l7.601562 47.203124c.398438 2.199219 2.398438 3.796876 4.597657 3.398438.800781-.199219 1.601562-.601562 2.203124-1.199219l12.796876-12.800781 21.402343 21.398438c4 3.800781 10.199219 3.800781 14.199219 0 3.800781-3.796876 3.800781-10.199219 0-14l-21.398438-21.398438 12.796876-12.800781c1.601562-1.597657 1.601562-4.199219 0-5.800781-.796876-.398438-1.597657-.796876-2.398438-1zm0 0" fill="#e9e9ea"/><path d="m429.273438 55.351562h-346.199219c-13.800781 0-25.199219 11.199219-25.199219 25.199219v25.398438h396.601562v-25.597657c-.203124-13.800781-11.402343-25-25.203124-25zm0 0" fill="#55acd5"/><path d="m298.476562 436.148438c-4 0-7.800781-1.597657-10.601562-4.398438l-17.800781-17.800781-9.199219 9.199219c-3.601562 3.601562-9.199219 3.601562-12.800781 0-1.398438-1.398438-2.199219-3-2.597657-5l-7.601562-47.199219c-.800781-5 2.601562-9.597657 7.601562-10.398438 1-.199219 2-.199219 2.796876 0l47.203124 7.597657c5 .800781 8.398438 5.402343 7.597657 10.402343-.398438 1.800781-1.199219 3.597657-2.597657 5l-9.203124 9.199219 17.800781 17.800781c5.800781 5.800781 5.800781 15.398438 0 21.199219-2.800781 2.800781-6.597657 4.398438-10.597657 4.398438zm-28.402343-34.199219c1.402343 0 2.601562.601562 3.601562 1.402343l21.398438 21.398438c2 2 5.199219 2 7 0s2-5.199219 0-7l-21.398438-21.398438c-2-2-2-5.203124 0-7l11.398438-11.402343-44.199219-7.199219 7.199219 44.199219 11.402343-11.398438c1-1.199219 2.398438-1.601562 3.597657-1.601562zm24-23.800781" fill="#231f20"/><path d="m346.074219 269.550781h-280.199219c-9.800781 0-17.800781 8-17.800781 17.800781v75.597657c0 9.800781 8 17.800781 17.800781 17.800781h178.800781l-1.800781-10.800781c-.398438-2.199219 1.199219-4.199219 3.398438-4.597657h1.203124l47.199219 7.597657c2.199219.402343 3.800781 2.402343 3.398438 4.601562-.199219.800781-.597657 1.597657-1.199219 2.199219l-.800781.800781h49.800781c9.800781 0 17.800781-8 17.800781-17.800781v-75.601562c.199219-9.597657-7.800781-17.597657-17.601562-17.597657zm0 0" fill="#ea4647"/><path d="m150.273438 296.949219c-5.199219-2-11 .402343-13 5.601562l-7.199219 18.199219-7.199219-18.199219s0 0 0-.199219c-2.199219-5-8-7.601562-13-5.402343-2.398438 1-4.398438 3-5.398438 5.402343v.199219l-7.203124 18.199219-7.199219-18.199219c-2-5.199219-7.800781-7.800781-13-5.800781s-7.800781 7.800781-5.800781 13v.199219l16.601562 41.402343c1.601562 3.796876 5.199219 6.199219 9.199219 6.199219s7.800781-2.601562 9.199219-6.199219l7.203124-18.203124 7.199219 18.203124c1.597657 3.796876 5.199219 6.199219 9.199219 6.199219s7.800781-2.601562 9.199219-6.199219l16.800781-41.402343c2-5.199219-.601562-11-5.601562-13zm0 0" fill="#ffcd29"/><path d="m242.675781 296.949219c-5.199219-2-11 .402343-13 5.601562l-7.199219 18.199219-7.203124-18.199219c-1.597657-3.800781-5.199219-6.199219-9.199219-6.199219s-7.800781 2.597657-9.199219 6.199219l-7.199219 18.199219-7.199219-18.199219c-2-5.199219-7.800781-7.800781-13-5.800781-5.203124 2-7.800781 7.800781-5.800781 13v.199219l16.597657 41.402343c1.601562 3.796876 5.203124 6.199219 9.203124 6.199219s7.597657-2.402343 9.199219-6.199219c0 0 0 0 0-.203124l7.199219-18.199219 7.199219 18.199219c1.601562 3.800781 5.199219 6.203124 9.199219 6.203124s7.800781-2.601562 9.203124-6.203124l16.597657-41.398438c2.199219-5-.398438-10.800781-5.398438-12.800781zm0 0" fill="#ffcd29"/><path d="m335.074219 296.949219c-5.199219-2-11 .402343-13 5.601562l-7.199219 18.199219-7.199219-18.199219s0 0 0-.199219c-2.199219-5-8-7.601562-13-5.402343-2.402343 1-4.402343 3-5.402343 5.402343v.199219l-7.199219 18.199219-7.199219-18.199219c-2-5.199219-7.800781-7.800781-13-5.800781s-7.800781 7.800781-5.800781 13v.199219l16.601562 41.402343c1.597657 3.796876 5.199219 6.199219 9.199219 6.199219s7.601562-2.402343 9.199219-6.199219c0 0 0 0 0-.203124l7.199219-18.199219 7.203124 18.199219c1.597657 3.800781 5.199219 6.203124 9.199219 6.203124s7.800781-2.601562 9.199219-6.203124l16.601562-41.398438c2.199219-5-.203124-10.800781-5.402343-12.800781zm0 0" fill="#ffcd29"/><path d="m380.074219 135.550781h-346.199219c-13.800781 0-25.199219 11.199219-25.199219 25.199219v25.601562h396.597657v-25.601562c-.199219-14-11.398438-25.199219-25.199219-25.199219zm0 0" fill="#55acd5"/><path d="m429.273438 431.75h-24c-2.796876 0-5-2.199219-5-5v-266c0-11.199219-9-20.199219-20.199219-20.199219h-322.199219c-2.800781 0-5-2.199219-5-5v-55.199219c0-16.601562 13.601562-30.203124 30.199219-30.203124h346.199219c16.601562 0 30.203124 13.601562 30.203124 30.203124v321c0 16.796876-13.601562 30.199219-30.203124 30.398438zm-19-10h19c11.203124 0 20.203124-9 20.203124-20.199219v-321.199219c0-11.203124-9-20.203124-20.203124-20.203124h-346.199219c-11.199219 0-20.199219 9-20.199219 20.203124v50.199219h317.199219c16.601562 0 30.199219 13.597657 30.199219 30.199219zm0 0" fill="#231f20"/><path d="m22.675781 80.75h-3.601562v-3.601562c0-2.796876-2.199219-5-5-5s-5 2.203124-5 5v3.601562h-3.597657c-2.800781 0-5 2.199219-5 5s2.199219 5 5 5h3.597657v3.601562c0 2.796876 2.199219 5 5 5s5-2.203124 5-5v-3.601562h3.601562c2.800781 0 5-2.199219 5-5s-2.199219-5-5-5zm0 0" fill="#ffcd29"/><path d="m317.675781 3.949219c0-.398438-.199219-.597657-.199219-1-.203124-.199219-.203124-.597657-.402343-.800781-.199219-.199219-.398438-.597657-.597657-.796876-2-1.800781-5-1.800781-7 0-.203124.199219-.402343.398438-.601562.796876-.199219.203124-.398438.601562-.398438.800781-.402343.402343-.601562.601562-.601562 1 0 .402343-.199219.601562-.199219 1 0 .402343 0 .601562.199219 1 0 .402343.199219.601562.199219 1 .199219.402343.199219.601562.402343.800781.199219.199219.398438.601562.597657.800781 2 2 5 2 7 0 .199219-.199219.402343-.402343.601562-.800781.199219-.199219.398438-.601562.398438-.800781.199219-.199219.199219-.597657.199219-1 0-.398438 0-.597657.203124-1 .398438-.398438.199219-.800781.199219-1zm0 0" fill="#6dcc6d"/><path d="m438.476562 456.148438c0-.398438-.203124-.597657-.203124-1-.199219-.199219-.199219-.597657-.398438-.796876-.199219-.203124-.398438-.601562-.601562-.800781-2-1.800781-5-1.800781-7 0-.199219.199219-.398438.398438-.597657.800781-.402343.597657-.601562 1.199219-.800781 1.796876-.199219.601562-.199219 1.402343 0 2 0 .402343.199219.601562.199219 1 .199219.402343.199219.601562.402343.800781.199219.199219.398438.601562.597657.800781 2 2 5 2 7 0 .199219-.199219.402343-.398438.601562-.800781.199219-.199219.398438-.597657.398438-.800781.199219-.199219.199219-.597657.199219-1 .203124-.796876.203124-1.398438.203124-2zm0 0" fill="#ea4647"/><path d="m268.675781 25.351562c-6.601562-1.203124-11.800781-6.402343-13.199219-13.203124 0-.199219-.203124-.199219-.402343-.199219s-.199219.199219-.199219.199219c-1.199219 6.601562-6.398438 11.800781-13.199219 13.203124-.199219 0-.199219.199219-.199219.398438s.199219.199219.199219.199219c6.597657 1.199219 11.800781 6.402343 13.199219 13.199219 0 .203124.199219.203124.398438.203124.203124 0 .203124-.203124.203124-.203124 1.199219-6.597657 6.398438-11.796876 13.199219-13.199219.199219 0 .199219-.199219.199219-.398438 0 0 0-.199219-.199219-.199219zm0 0" fill="#55acd5"/><g fill="#231f20"><path d="m380.074219 511.949219h-346.199219c-16.601562 0-30.199219-13.597657-30.199219-30.199219v-321c0-16.601562 13.597657-30.199219 30.199219-30.199219h346.199219c16.601562 0 30.199219 13.597657 30.199219 30.199219v321c0 16.601562-13.597657 30.199219-30.199219 30.199219zm-346.199219-371.398438c-11.199219 0-20.199219 9-20.199219 20.199219v321c0 11.199219 9 20.199219 20.199219 20.199219h346.199219c11.199219 0 20.199219-9 20.199219-20.199219v-321c0-11.199219-9-20.199219-20.199219-20.199219zm0 0"/><path d="m39.273438 165.949219c-1.398438 0-2.597657-.597657-3.597657-1.398438-.199219-.199219-.402343-.402343-.601562-.800781-.199219-.199219-.398438-.601562-.398438-.800781-.199219-.398438-.199219-.597657-.199219-1 0-.398438 0-.597657 0-1 0-.398438 0-.597657 0-1 0-.398438.199219-.597657.199219-1 .199219-.398438.199219-.597657.398438-.800781.199219-.199219.402343-.597657.601562-.796876 2-1.800781 5-1.800781 7 0 .199219.199219.398438.398438.597657.796876.203124.203124.402343.601562.402343.800781.199219.199219.199219.601562.199219 1 0 .402343.199219.601562 0 1v1c0 .402343-.199219.601562-.199219 1-.199219.402343-.199219.601562-.402343.800781-.199219.199219-.398438.601562-.597657.800781s-.402343.398438-.800781.597657c-.199219.203124-.601562.402343-.800781.402343-.398438.199219-.597657.199219-1 .199219-.199219.199219-.398438.199219-.800781.199219zm0 0"/><path d="m57.875 165.949219c-2.800781 0-5-2.199219-5-5 0-1.398438.601562-2.597657 1.398438-3.597657 2-1.800781 5-1.800781 7 0 2 2 2 5.199219 0 7-.796876 1-2.199219 1.597657-3.398438 1.597657zm0 0"/><path d="m76.273438 165.949219c-1.398438 0-2.597657-.597657-3.597657-1.398438-1-1-1.402343-2.199219-1.402343-3.601562 0-.398438 0-.597657 0-1 0-.398438.203124-.597657.203124-1 .199219-.398438.199219-.597657.398438-.800781.199219-.199219.398438-.597657.601562-.796876 2-1.800781 5-1.800781 7 0 .199219.199219.398438.398438.597657.796876.199219.203124.402343.601562.402343.800781.199219.199219.199219.601562.199219 1v1c.597657 2.601562-1.601562 5-4.402343 5zm0 0"/><path d="m454.476562 110.949219h-396.601562c-2.800781 0-5-2.199219-5-5v-25.597657c0-16.601562 13.601562-30.203124 30.199219-30.203124h346.199219c16.601562 0 30.203124 13.601562 30.203124 30.203124v25.597657c0 2.800781-2.402343 5-5 5zm-391.601562-10h386.601562v-20.597657c0-11.203124-9-20.203124-20.203124-20.203124h-346.199219c-11.199219 0-20.199219 9-20.199219 20.203124zm0 0"/><path d="m88.476562 85.550781c-1.402343 0-2.601562-.601562-3.601562-1.402343-.199219-.199219-.398438-.398438-.601562-.796876-.199219-.203124-.398438-.601562-.398438-.800781-.199219-.402343-.199219-.601562-.199219-1 0-.402343-.199219-.601562 0-1 0-.402343 0-.601562 0-1 0-.402343.199219-.601562.199219-1 .199219-.402343.199219-.601562.398438-.800781.203124-.199219.402343-.601562.601562-.800781 1.199219-1.199219 2.800781-1.597657 4.398438-1.398438.402343 0 .601562.199219 1 .199219.402343.199219.601562.199219.800781.398438.199219.203124.601562.402343.800781.601562 1 1 1.398438 2.199219 1.398438 3.601562v1c0 .398438-.199219.597657-.398438 1-.199219.398438-.199219.597657-.398438.796876-.203124.203124-.402343.601562-.601562.800781s-.398438.402343-.800781.601562c-.199219.199219-.597657.398438-.800781.398438-.398438.199219-.597657.199219-1 .199219-.199219.402343-.398438.402343-.796876.402343zm0 0"/><path d="m107.074219 85.550781c-.398438 0-.597657 0-1 0-.398438 0-.597657-.199219-1-.402343-.398438-.199219-.597657-.199219-.800781-.398438-.199219-.199219-.597657-.398438-.796876-.601562-.203124-.199219-.402343-.597657-.601562-.796876-.199219-.203124-.398438-.601562-.398438-.800781-.203124-.199219-.203124-.601562-.203124-1 0-.402343-.199219-.601562-.199219-1 0-.402343 0-.601562.199219-1 .203124-.601562.402343-1.199219.800781-1.800781.199219-.199219.402343-.601562.601562-.800781s.398438-.398438.800781-.597657c2-1.402343 4.597657-1 6.199219.597657.199219.199219.398438.402343.597657.800781.203124.199219.402343.601562.402343.800781.199219.597657.398438 1.199219.398438 2 0 .398438 0 .597657-.199219 1 0 .398438-.199219.597657-.199219 1-.199219.199219-.199219.597657-.402343.800781-.199219.199219-.398438.597657-.597657.796876-.199219.203124-.402343.402343-.800781.601562-.199219.199219-.601562.398438-.800781.398438-.398438.203124-.597657.203124-1 .402343-.398438 0-.800781 0-1 0zm0 0"/><path d="m125.476562 85.550781c-1.402343 0-2.601562-.601562-3.601562-1.402343-.199219-.199219-.398438-.398438-.601562-.796876-.199219-.203124-.398438-.601562-.398438-.800781-.199219-.199219-.199219-.601562-.199219-1 0-.402343 0-.601562-.199219-1 0-1.402343.597657-2.601562 1.398438-3.601562.199219-.199219.398438-.398438.800781-.597657.199219-.203124.597657-.402343.800781-.402343.199219-.199219.597657-.199219 1-.199219 2.597657-.601562 5.398438 1.199219 5.796876 3.800781 0 .398438.203124.597657.203124 1 0 .398438 0 .597657-.203124 1 0 .398438-.199219.597657-.199219 1-.199219.398438-.199219.597657-.398438.800781-.199219.199219-.402343.597657-.601562.796876-1 1-2.199219 1.402343-3.597657 1.402343zm0 0"/><path d="m364.675781 85.550781h-183.199219c-2.800781 0-5-2.199219-5-5s2.199219-5 5-5h183.199219c2.800781 0 5 2.199219 5 5s-2.199219 5-5 5zm0 0"/><path d="m316.273438 165.949219h-183.199219c-2.800781 0-5-2.199219-5-5s2.199219-5 5-5h183.199219c2.800781 0 5 2.199219 5 5s-2.199219 5-5 5zm0 0"/><path d="m346.074219 385.949219h-49.800781c-2.796876 0-5-2.199219-5-5 0-1.199219.402343-2.199219 1-3.199219l-44.199219-7.199219 1.601562 9.398438c.398438 2.800781-1.402343 5.199219-4.199219 5.800781-.203124 0-.601562 0-.800781 0h-178.800781c-12.601562 0-22.800781-10.199219-22.800781-22.800781v-75.597657c0-12.601562 10.199219-22.800781 22.800781-22.800781h280.199219c12.601562 0 22.800781 10.199219 22.800781 22.800781v75.597657c0 12.800781-10.199219 23-22.800781 23zm-43-10h42.800781c7.199219 0 12.800781-5.800781 12.800781-12.800781v-75.597657c0-7.199219-5.800781-12.800781-12.800781-12.800781h-280c-7.199219 0-12.800781 5.800781-12.800781 12.800781v75.597657c0 7.203124 5.800781 12.800781 12.800781 12.800781h173l-.800781-5c-.800781-5 2.601562-9.597657 7.601562-10.398438 1-.199219 2-.199219 2.800781 0l47.199219 7.597657c3.398438.601562 6.199219 3 7.199219 6.203124 0 .597657.199219 1 .199219 1.597657zm0 0"/><path d="m130.074219 362.550781h-.199219c-6-.199219-11.398438-3.800781-13.800781-9.402343l-2.597657-6.398438-2.601562 6.398438c-2.199219 5.601562-7.601562 9.402343-13.800781 9.402343-.199219 0-.199219 0-.398438 0-6-.199219-11.402343-3.800781-13.800781-9.402343l-16.601562-41.398438c-3-7.601562.601562-16.398438 8.402343-19.398438s16.398438.597657 19.398438 8.398438l2.601562 6.398438 2.597657-6.398438c0-.199219.203124-.199219.203124-.398438 2.398438-5.402343 7.796876-9 13.796876-9s11.402343 3.597657 13.800781 9c0 .199219.199219.199219.199219.398438l2.601562 6.398438 2.601562-6.398438c3-7.601562 11.796876-11.398438 19.398438-8.398438s11.398438 11.796876 8.398438 19.398438l-16.398438 41.398438c-2.199219 5.601562-7.601562 9.402343-13.800781 9.402343zm-16.597657-34.402343c2 0 3.796876 1.203124 4.597657 3.203124l7.199219 18.199219c.800781 1.800781 2.601562 3.199219 4.601562 3.199219s3.800781-1.199219 4.601562-3.199219l16.597657-41.402343c1-2.597657-.199219-5.398438-2.597657-6.597657-2.601562-1-5.402343.199219-6.601562 2.597657v.203124l-7.199219 18.199219c-1 2.597657-4 3.800781-6.402343 2.800781-1.199219-.601562-2.199219-1.601562-2.796876-2.800781l-7.203124-18c0-.199219 0-.199219-.199219-.402343-.800781-1.796876-2.597657-3-4.597657-3s-3.800781 1.203124-4.601562 3c0 0 0 .203124-.199219.203124l-7.199219 17.796876c-1 2.601562-4 3.800781-6.402343 2.800781-1.199219-.597657-2.199219-1.597657-2.800781-2.800781l-7.199219-18.199219c-1-2.597657-3.800781-3.800781-6.398438-3-2.601562 1-3.800781 3.800781-3 6.402343v.199219l16.597657 41.398438c.800781 1.800781 2.601562 3.199219 4.601562 3.199219s3.800781-1.199219 4.601562-3.199219l7.199219-18.199219c.800781-1.398438 2.800781-2.601562 4.800781-2.601562zm0 0"/><path d="m222.476562 362.550781h-.203124c-6-.199219-11.398438-3.800781-13.796876-9.402343l-2.601562-6.398438-2.601562 6.398438c0 .203124-.199219.203124-.199219.402343-2.398438 5.398438-7.597657 9-13.597657 9-.203124 0-.203124 0-.402343 0-6-.199219-11.398438-3.800781-13.800781-9.402343l-16.597657-41.398438c-3-7.601562.597657-16.398438 8.398438-19.398438 7.601562-3 16.402343.597657 19.402343 8.398438l2.597657 6.398438 2.601562-6.398438c2.199219-5.601562 7.800781-9.398438 14-9.398438s11.597657 3.796876 14 9.398438l2.597657 6.398438 2.601562-6.398438c3-7.601562 11.800781-11.398438 19.398438-8.398438 7.601562 3 11.402343 11.796876 8.402343 19.398438l-16.601562 41.398438c-2.199219 5.601562-7.597657 9.402343-13.800781 9.402343zm-16.601562-34.402343c2 0 3.800781 1.203124 4.601562 3.203124l7.199219 18.199219c.800781 1.800781 2.597657 3.199219 4.597657 3.199219s3.800781-1.199219 4.601562-3.199219l16.601562-41.402343c1-2.597657-.203124-5.398438-2.601562-6.597657-2.601562-1-5.398438.199219-6.601562 2.597657v.203124l-7.199219 18.199219c-1 2.597657-4 3.800781-6.398438 2.800781-1.199219-.601562-2.199219-1.601562-2.800781-2.800781l-7.199219-18.199219c-.800781-1.800781-2.601562-3.203124-4.601562-3.203124s-3.800781 1.203124-4.597657 3.203124l-7.203124 18.199219c-1 2.597657-4 3.800781-6.398438 2.800781-1.199219-.601562-2.199219-1.601562-2.800781-2.800781l-7.199219-18.199219c-1-2.601562-3.800781-3.800781-6.398438-3-2.601562 1-3.800781 3.796876-3 6.398438v.199219l16.597657 41.402343c.800781 1.796876 2.601562 3.199219 4.601562 3.199219s3.800781-1.199219 4.597657-3c0 0 0-.199219.203124-.199219l7.199219-18c.398438-2 2.199219-3.203124 4.199219-3.203124zm0 0"/><path d="m314.675781 362.550781c-6-.199219-11.402343-3.800781-13.800781-9.402343l-2.601562-6.398438-2.597657 6.398438c0 .203124-.199219.203124-.199219.402343-2.402343 5.398438-7.601562 9-13.601562 9-.199219 0-.199219 0-.398438 0-6-.199219-11.402343-3.800781-13.800781-9.402343l-16.601562-41.398438c-3-7.601562.601562-16.398438 8.402343-19.398438 7.597657-3 16.398438.597657 19.398438 8.398438l2.601562 6.398438 2.597657-6.398438c0-.199219.199219-.199219.199219-.398438 3.203124-7.601562 12.203124-11 19.800781-7.800781 3.601562 1.597657 6.199219 4.398438 7.800781 7.800781 0 .199219.199219.199219.199219.398438l2.601562 6.398438 2.597657-6.398438c3-7.601562 11.800781-11.398438 19.402343-8.398438 7.597657 3 11.398438 11.796876 8.398438 19.398438l-16.597657 41.398438c-2.203124 5.601562-7.601562 9.203124-13.601562 9.402343.199219 0 0 0-.199219 0zm-.199219-10c-1 0-2 .398438-2.601562 1 .601562-.601562 1.601562-.800781 2.601562-1zm-16.203124-24.402343c2 0 3.800781 1.203124 4.601562 3.203124l7.199219 18.199219c.800781 1.800781 2.601562 3 4.402343 3.199219h.199219c2 0 3.800781-1.199219 4.597657-3.199219l16.601562-41.402343c1-2.597657-.199219-5.398438-2.601562-6.597657-2.597657-1-5.398438.199219-6.597657 2.597657v.203124l-7.199219 18.199219c-1 2.597657-4 3.800781-6.402343 2.800781-1.199219-.601562-2.199219-1.601562-2.800781-2.800781l-7.199219-18c0-.199219 0-.199219-.199219-.402343-.800781-1.796876-2.601562-3-4.601562-3s-3.796876 1.203124-4.597657 3c0 0 0 .203124-.199219.203124l-7.203124 17.796876c-1 2.601562-4 3.800781-6.398438 2.800781-1.199219-.597657-2.199219-1.597657-2.800781-2.800781l-7.199219-18.199219c-1-2.597657-3.800781-3.800781-6.398438-3-2.601562 1-3.800781 3.800781-3 6.402343v.199219l16.597657 41.398438c.800781 1.800781 2.601562 3.199219 4.601562 3.199219s3.800781-1.199219 4.597657-3c0 0 0-.199219.203124-.199219l7.199219-18c.800781-1.597657 2.597657-2.800781 4.597657-2.800781zm0 0"/><path d="m405.273438 191.148438h-396.597657c-2.800781 0-5-2.199219-5-5v-25.398438c0-16.601562 13.597657-30.199219 30.199219-30.199219h346.199219c16.601562 0 30.199219 13.597657 30.199219 30.199219v25.601562c0 2.597657-2.199219 4.796876-5 4.796876zm-391.597657-10h386.597657v-20.398438c0-11.199219-9-20.199219-20.199219-20.199219h-346.199219c-11.199219 0-20.199219 9-20.199219 20.199219zm0 0"/></g></svg>